<svg width="24" height="24" viewBox="0 0 24 24" fill="none" xmlns="http://www.w3.org/2000/svg">
<path d="M11.9992 5.99805C10.6193 5.99805 9.49927 7.11804 9.49927 8.498V9.49794C9.49927 10.8779 10.6193 11.9979 11.9992 11.9979C13.3792 11.9979 14.4992 10.8779 14.4992 9.49794V8.498C14.4992 7.11804 13.3792 5.99805 11.9992 5.99805ZM13.4992 9.49811C13.4992 10.3231 12.8242 10.9981 11.9992 10.9981C11.1742 10.9981 10.4992 10.3231 10.4992 9.49811V8.49817C10.4992 7.67317 11.1742 6.99816 11.9992 6.99816C12.8242 6.99816 13.4992 7.67317 13.4992 8.49817V9.49811Z" fill="black"/>
<path d="M6.00068 4C4.62072 4 3.50073 5.11999 3.50073 6.49995V7.49989C3.50073 8.87986 4.62072 9.99984 6.00068 9.99984C7.38064 9.99984 8.50063 8.87986 8.50063 7.49989V6.49995C8.50063 5.11999 7.38064 4 6.00068 4ZM7.50069 7.50007C7.50069 8.32507 6.82568 9.00007 6.00068 9.00007C5.17568 9.00007 4.50068 8.32507 4.50068 7.50007V6.50012C4.50068 5.67512 5.17568 5.00012 6.00068 5.00012C6.82568 5.00012 7.50069 5.67512 7.50069 6.50012V7.50007Z" fill="black"/>
<path d="M17.9934 4C16.6134 4 15.4934 5.11999 15.4934 6.49995V7.49989C15.4934 8.87986 16.6134 9.99984 17.9934 9.99984C19.3733 9.99984 20.4933 8.87986 20.4933 7.49989V6.49995C20.4933 5.11999 19.3733 4 17.9934 4ZM19.4934 7.50007C19.4934 8.32507 18.8184 9.00007 17.9934 9.00007C17.1684 9.00007 16.4934 8.32507 16.4934 7.50007V6.50012C16.4934 5.67512 17.1684 5.00012 17.9934 5.00012C18.8184 5.00012 19.4934 5.67512 19.4934 6.50012V7.50007Z" fill="black"/>
<path d="M18.5 10.9995H17.5C15.9301 10.9995 14.4751 11.8396 13.67 13.1594C13.2949 13.0595 12.9049 12.9994 12.5 12.9994H11.5C11.0951 12.9994 10.705 13.0593 10.33 13.1594C9.52491 11.8394 8.06995 10.9995 6.49996 10.9995H5.50001C3.01999 10.9995 1 13.0195 1 15.4995V17.4996C1 17.7746 1.225 17.9996 1.50006 17.9996H6.99993V19.4996C6.99993 19.7747 7.22493 19.9997 7.49999 19.9997H16.5C16.7751 19.9997 17.0001 19.7747 17.0001 19.4996V17.9996H22.4999C22.775 17.9996 23 17.7746 23 17.4996V15.4995C22.9998 13.0195 20.9798 10.9995 18.5 10.9995ZM7.0301 16.9995H1.99995V15.4995C1.99995 13.5694 3.56994 11.9995 5.50001 11.9995H6.49996C7.65993 11.9995 8.74495 12.5844 9.38999 13.5294C8.10998 14.2094 7.19489 15.4945 7.03002 16.9995H7.0301ZM16.0001 18.9994H8.00039V17.4994C8.00039 15.5693 9.57038 13.9993 11.5005 13.9993H12.5004C14.4305 13.9993 16.0005 15.5693 16.0005 17.4994L16.0001 18.9994ZM22.0001 16.9995H16.97C16.8049 15.4945 15.89 14.2094 14.61 13.5296C15.2551 12.5844 16.34 11.9995 17.5 11.9995H18.5C20.4301 11.9995 22.0001 13.5694 22.0001 15.4995L22.0001 16.9995Z" fill="black"/>
</svg>
