<svg width="241" height="24" viewBox="0 0 241 24" fill="none" xmlns="http://www.w3.org/2000/svg">
<path d="M9.28823 19.745C10.0632 19.745 10.7142 19.652 11.2412 19.466C11.7682 19.28 12.1867 19.032 12.4967 18.722C12.8171 18.412 13.0444 18.0503 13.1787 17.637C13.3234 17.2237 13.3957 16.7845 13.3957 16.3195C13.3957 15.8338 13.3182 15.3998 13.1632 15.0175C13.0082 14.6248 12.7654 14.2942 12.4347 14.0255C12.1041 13.7465 11.6752 13.5347 11.1482 13.39C10.6316 13.2453 10.0064 13.173 9.27273 13.173H5.07223V19.745H9.28823ZM5.07223 3.811V10.29H8.38923C9.81523 10.29 10.8899 10.0317 11.6132 9.515C12.3469 8.99833 12.7137 8.17683 12.7137 7.0505C12.7137 5.88283 12.3831 5.051 11.7217 4.555C11.0604 4.059 10.0271 3.811 8.62173 3.811H5.07223ZM8.62173 0.586998C10.0891 0.586998 11.3446 0.726499 12.3882 1.0055C13.4319 1.2845 14.2844 1.68233 14.9457 2.199C15.6174 2.71567 16.1082 3.34083 16.4182 4.0745C16.7282 4.80817 16.8832 5.63483 16.8832 6.5545C16.8832 7.0815 16.8057 7.58783 16.6507 8.0735C16.4957 8.54883 16.2529 8.99833 15.9222 9.422C15.6019 9.83533 15.1886 10.2125 14.6822 10.5535C14.1862 10.8945 13.5921 11.1838 12.8997 11.4215C15.9791 12.1138 17.5187 13.7775 17.5187 16.4125C17.5187 17.3632 17.3379 18.2415 16.9762 19.0475C16.6146 19.8535 16.0876 20.551 15.3952 21.14C14.7029 21.7187 13.8504 22.1733 12.8377 22.504C11.8251 22.8347 10.6677 23 9.36573 23H0.902727V0.586998H8.62173ZM42.6815 11.7935C42.6815 13.4365 42.4077 14.9607 41.86 16.366C41.3227 17.761 40.558 18.97 39.566 19.993C38.574 21.016 37.3805 21.8168 35.9855 22.3955C34.5905 22.9638 33.0405 23.248 31.3355 23.248C29.6409 23.248 28.096 22.9638 26.701 22.3955C25.306 21.8168 24.1074 21.016 23.105 19.993C22.113 18.97 21.3432 17.761 20.7955 16.366C20.2479 14.9607 19.974 13.4365 19.974 11.7935C19.974 10.1505 20.2479 8.6315 20.7955 7.2365C21.3432 5.83117 22.113 4.617 23.105 3.594C24.1074 2.571 25.306 1.77533 26.701 1.207C28.096 0.628333 29.6409 0.339 31.3355 0.339C32.4722 0.339 33.5417 0.473333 34.544 0.741998C35.5464 1.00033 36.466 1.37233 37.303 1.858C38.14 2.33333 38.8892 2.91717 39.5505 3.6095C40.2222 4.2915 40.7905 5.05617 41.2555 5.9035C41.7205 6.75083 42.0719 7.6705 42.3095 8.6625C42.5575 9.6545 42.6815 10.6982 42.6815 11.7935ZM38.419 11.7935C38.419 10.5638 38.2537 9.46333 37.923 8.492C37.5924 7.51033 37.1222 6.6785 36.5125 5.9965C35.9029 5.3145 35.1589 4.79267 34.2805 4.431C33.4125 4.06933 32.4309 3.8885 31.3355 3.8885C30.2402 3.8885 29.2534 4.06933 28.375 4.431C27.507 4.79267 26.763 5.3145 26.143 5.9965C25.5334 6.6785 25.0632 7.51033 24.7325 8.492C24.4019 9.46333 24.2365 10.5638 24.2365 11.7935C24.2365 13.0232 24.4019 14.1288 24.7325 15.1105C25.0632 16.0818 25.5334 16.9085 26.143 17.5905C26.763 18.2622 27.507 18.7788 28.375 19.1405C29.2534 19.5022 30.2402 19.683 31.3355 19.683C32.4309 19.683 33.4125 19.5022 34.2805 19.1405C35.1589 18.7788 35.9029 18.2622 36.5125 17.5905C37.1222 16.9085 37.5924 16.0818 37.923 15.1105C38.2537 14.1288 38.419 13.0232 38.419 11.7935ZM53.6282 11.8555C54.3928 11.8555 55.0593 11.7625 55.6277 11.5765C56.196 11.3802 56.6662 11.1063 57.0382 10.755C57.4205 10.3933 57.7047 9.95933 57.8907 9.453C58.0767 8.93633 58.1697 8.36283 58.1697 7.7325C58.1697 7.13317 58.0767 6.59067 57.8907 6.105C57.7047 5.61933 57.4257 5.206 57.0537 4.865C56.6817 4.524 56.2115 4.26567 55.6432 4.09C55.0748 3.904 54.4032 3.811 53.6282 3.811H50.5127V11.8555H53.6282ZM53.6282 0.586998C55.1265 0.586998 56.4233 0.762665 57.5187 1.114C58.614 1.46533 59.5182 1.95617 60.2312 2.5865C60.9442 3.21683 61.4712 3.97117 61.8122 4.8495C62.1635 5.72783 62.3392 6.68883 62.3392 7.7325C62.3392 8.8175 62.1583 9.81467 61.7967 10.724C61.435 11.623 60.8925 12.398 60.1692 13.049C59.4458 13.7 58.5365 14.2063 57.4412 14.568C56.3562 14.9297 55.0852 15.1105 53.6282 15.1105H50.5127V23H46.3432V0.586998H53.6282ZM69.7215 23H65.5365V0.586998H69.7215V23ZM86.6746 4.6635C86.5506 4.8805 86.4163 5.04067 86.2716 5.144C86.1373 5.237 85.9668 5.2835 85.7601 5.2835C85.5431 5.2835 85.3055 5.206 85.0471 5.051C84.7991 4.88567 84.4995 4.70483 84.1481 4.5085C83.7968 4.31217 83.3835 4.1365 82.9081 3.9815C82.4431 3.81617 81.8903 3.7335 81.2496 3.7335C80.671 3.7335 80.1646 3.80583 79.7306 3.9505C79.2966 4.08483 78.9298 4.276 78.6301 4.524C78.3408 4.772 78.1238 5.07167 77.9791 5.423C77.8345 5.764 77.7621 6.14117 77.7621 6.5545C77.7621 7.0815 77.9068 7.52067 78.1961 7.872C78.4958 8.22333 78.8885 8.523 79.3741 8.771C79.8598 9.019 80.4126 9.24117 81.0326 9.4375C81.6526 9.63383 82.2881 9.84567 82.9391 10.073C83.5901 10.29 84.2256 10.5483 84.8456 10.848C85.4656 11.1373 86.0185 11.5093 86.5041 11.964C86.9898 12.4083 87.3773 12.956 87.6666 13.607C87.9663 14.258 88.1161 15.0485 88.1161 15.9785C88.1161 16.9912 87.9405 17.9418 87.5891 18.8305C87.2481 19.7088 86.7418 20.4787 86.0701 21.14C85.4088 21.791 84.5976 22.3077 83.6366 22.69C82.6756 23.062 81.5751 23.248 80.3351 23.248C79.6221 23.248 78.9195 23.1757 78.2271 23.031C77.5348 22.8967 76.8683 22.7003 76.2276 22.442C75.5973 22.1837 75.0031 21.8737 74.4451 21.512C73.8871 21.1503 73.3911 20.7473 72.9571 20.303L74.1816 18.3035C74.285 18.1588 74.4193 18.04 74.5846 17.947C74.75 17.8437 74.9256 17.792 75.1116 17.792C75.37 17.792 75.649 17.9005 75.9486 18.1175C76.2483 18.3242 76.6048 18.5567 77.0181 18.815C77.4315 19.0733 77.912 19.311 78.4596 19.528C79.0176 19.7347 79.6841 19.838 80.4591 19.838C81.6475 19.838 82.5671 19.559 83.2181 19.001C83.8691 18.4327 84.1946 17.6215 84.1946 16.5675C84.1946 15.9785 84.0448 15.498 83.7451 15.126C83.4558 14.754 83.0683 14.444 82.5826 14.196C82.097 13.9377 81.5441 13.7207 80.9241 13.545C80.3041 13.3693 79.6738 13.1782 79.0331 12.9715C78.3925 12.7648 77.7621 12.5168 77.1421 12.2275C76.5221 11.9382 75.9693 11.561 75.4836 11.096C74.998 10.631 74.6053 10.0523 74.3056 9.36C74.0163 8.65733 73.8716 7.7945 73.8716 6.7715C73.8716 5.95517 74.0318 5.1595 74.3521 4.3845C74.6828 3.6095 75.1581 2.92233 75.7781 2.323C76.3981 1.72367 77.1628 1.24317 78.0721 0.881499C78.9815 0.519833 80.0251 0.339 81.2031 0.339C82.5258 0.339 83.7451 0.545666 84.8611 0.958999C85.9771 1.37233 86.9278 1.951 87.7131 2.695L86.6746 4.6635ZM119.389 12.026C119.389 13.7207 119.136 15.2448 118.63 16.5985C118.123 17.9522 117.41 19.1043 116.491 20.055C115.571 21.0057 114.465 21.7342 113.174 22.2405C111.892 22.7468 110.477 23 108.927 23H100.913V1.0675H108.927C110.477 1.0675 111.892 1.32067 113.174 1.827C114.465 2.33333 115.571 3.06183 116.491 4.0125C117.41 4.96317 118.123 6.11533 118.63 7.469C119.136 8.82267 119.389 10.3417 119.389 12.026ZM117.746 12.026C117.746 10.4967 117.534 9.13267 117.111 7.934C116.687 6.73533 116.088 5.72267 115.313 4.896C114.538 4.06933 113.608 3.439 112.523 3.005C111.438 2.571 110.239 2.354 108.927 2.354H102.51V21.7135H108.927C110.239 21.7135 111.438 21.4965 112.523 21.0625C113.608 20.6285 114.538 19.9982 115.313 19.1715C116.088 18.3448 116.687 17.3322 117.111 16.1335C117.534 14.9348 117.746 13.5657 117.746 12.026ZM131.978 15.5445C130.511 15.5962 129.245 15.715 128.181 15.901C127.127 16.0767 126.254 16.3195 125.561 16.6295C124.879 16.9395 124.373 17.3115 124.042 17.7455C123.712 18.1692 123.546 18.6548 123.546 19.2025C123.546 19.7192 123.629 20.1687 123.794 20.551C123.97 20.923 124.197 21.233 124.476 21.481C124.766 21.7187 125.096 21.8943 125.468 22.008C125.84 22.1217 126.228 22.1785 126.631 22.1785C127.23 22.1785 127.778 22.1165 128.274 21.9925C128.78 21.8582 129.245 21.6773 129.669 21.45C130.103 21.2123 130.506 20.9333 130.878 20.613C131.25 20.2927 131.617 19.9465 131.978 19.5745V15.5445ZM122.911 9.763C123.717 8.957 124.564 8.34733 125.453 7.934C126.341 7.52067 127.349 7.314 128.475 7.314C129.302 7.314 130.025 7.44833 130.645 7.717C131.265 7.97533 131.777 8.3525 132.18 8.8485C132.593 9.33417 132.903 9.92833 133.11 10.631C133.316 11.3233 133.42 12.0983 133.42 12.956V23H132.831C132.521 23 132.33 22.8553 132.257 22.566L132.04 20.582C131.617 20.9953 131.193 21.3673 130.769 21.698C130.356 22.0287 129.922 22.3077 129.467 22.535C129.013 22.7623 128.522 22.938 127.995 23.062C127.468 23.186 126.889 23.248 126.259 23.248C125.732 23.248 125.22 23.1705 124.724 23.0155C124.228 22.8605 123.784 22.6228 123.391 22.3025C123.009 21.9822 122.699 21.574 122.461 21.078C122.234 20.5717 122.12 19.9672 122.12 19.2645C122.12 18.6135 122.306 18.009 122.678 17.451C123.05 16.893 123.634 16.4073 124.43 15.994C125.225 15.5807 126.243 15.25 127.483 15.002C128.734 14.754 130.232 14.6093 131.978 14.568V12.956C131.978 11.53 131.668 10.4347 131.048 9.67C130.439 8.895 129.529 8.5075 128.32 8.5075C127.576 8.5075 126.941 8.61083 126.414 8.8175C125.897 9.02417 125.458 9.2515 125.096 9.4995C124.735 9.7475 124.44 9.97483 124.213 10.1815C123.985 10.3882 123.794 10.4915 123.639 10.4915C123.526 10.4915 123.433 10.4657 123.36 10.414C123.288 10.3623 123.226 10.2952 123.174 10.2125L122.911 9.763ZM146.839 9.484C146.756 9.62867 146.637 9.701 146.482 9.701C146.369 9.701 146.224 9.639 146.048 9.515C145.873 9.38067 145.635 9.236 145.335 9.081C145.046 8.91567 144.684 8.771 144.25 8.647C143.816 8.51267 143.289 8.4455 142.669 8.4455C142.111 8.4455 141.6 8.52817 141.135 8.6935C140.68 8.8485 140.288 9.06033 139.957 9.329C139.637 9.59767 139.389 9.91283 139.213 10.2745C139.037 10.6258 138.949 10.9978 138.949 11.3905C138.949 11.8762 139.073 12.2792 139.321 12.5995C139.569 12.9198 139.89 13.1937 140.282 13.421C140.685 13.6483 141.145 13.8447 141.662 14.01C142.179 14.1753 142.7 14.3407 143.227 14.506C143.765 14.6713 144.292 14.8573 144.808 15.064C145.325 15.2603 145.78 15.5083 146.172 15.808C146.575 16.1077 146.901 16.4745 147.149 16.9085C147.397 17.3425 147.521 17.8695 147.521 18.4895C147.521 19.1612 147.402 19.7863 147.164 20.365C146.927 20.9437 146.575 21.4448 146.11 21.8685C145.656 22.2922 145.093 22.628 144.421 22.876C143.749 23.124 142.979 23.248 142.111 23.248C141.026 23.248 140.091 23.0775 139.306 22.7365C138.521 22.3852 137.818 21.9305 137.198 21.3725L137.539 20.8455C137.591 20.7628 137.647 20.7008 137.709 20.6595C137.782 20.6182 137.875 20.5975 137.988 20.5975C138.123 20.5975 138.283 20.6802 138.469 20.8455C138.665 21.0108 138.924 21.1917 139.244 21.388C139.564 21.574 139.957 21.7497 140.422 21.915C140.897 22.0803 141.481 22.163 142.173 22.163C142.824 22.163 143.398 22.0752 143.894 21.8995C144.39 21.7135 144.803 21.4655 145.134 21.1555C145.465 20.8455 145.713 20.4838 145.878 20.0705C146.054 19.6468 146.141 19.2025 146.141 18.7375C146.141 18.2208 146.017 17.792 145.769 17.451C145.521 17.11 145.196 16.8207 144.793 16.583C144.39 16.3453 143.93 16.1438 143.413 15.9785C142.907 15.8132 142.385 15.6478 141.848 15.4825C141.311 15.3172 140.784 15.1363 140.267 14.94C139.761 14.7437 139.306 14.4957 138.903 14.196C138.5 13.8963 138.174 13.5347 137.926 13.111C137.678 12.677 137.554 12.1397 137.554 11.499C137.554 10.9513 137.673 10.4243 137.911 9.918C138.149 9.41167 138.484 8.96733 138.918 8.585C139.363 8.20267 139.9 7.89783 140.53 7.6705C141.161 7.44317 141.869 7.3295 142.654 7.3295C143.594 7.3295 144.426 7.46383 145.149 7.7325C145.883 8.00117 146.55 8.4145 147.149 8.9725L146.839 9.484ZM153.017 10.1815C153.73 9.3135 154.541 8.62117 155.451 8.1045C156.37 7.58783 157.399 7.3295 158.535 7.3295C159.383 7.3295 160.127 7.46383 160.767 7.7325C161.418 8.00117 161.956 8.38867 162.379 8.895C162.803 9.40133 163.123 10.011 163.34 10.724C163.557 11.437 163.666 12.243 163.666 13.142V23H162.178V13.142C162.178 11.6953 161.847 10.5638 161.186 9.7475C160.524 8.92083 159.517 8.5075 158.163 8.5075C157.161 8.5075 156.221 8.76583 155.342 9.2825C154.474 9.78883 153.699 10.4967 153.017 11.406V23H151.529V0.447499H153.017V10.1815ZM170.061 19.6365C170.661 20.5252 171.317 21.1503 172.03 21.512C172.753 21.8633 173.564 22.039 174.463 22.039C175.383 22.039 176.184 21.8737 176.866 21.543C177.558 21.2123 178.132 20.7422 178.586 20.1325C179.051 19.5125 179.397 18.7633 179.625 17.885C179.852 17.0067 179.966 16.0198 179.966 14.9245C179.966 12.7958 179.542 11.1942 178.695 10.1195C177.847 9.04483 176.659 8.5075 175.13 8.5075C174.034 8.5075 173.079 8.771 172.262 9.298C171.446 9.825 170.712 10.5587 170.061 11.499V19.6365ZM170.061 10.259C170.733 9.34967 171.518 8.63667 172.417 8.12C173.316 7.593 174.36 7.3295 175.548 7.3295C176.478 7.3295 177.31 7.5 178.044 7.841C178.777 8.182 179.397 8.67283 179.904 9.3135C180.42 9.95417 180.813 10.7447 181.082 11.685C181.35 12.615 181.485 13.6742 181.485 14.8625C181.485 16.1128 181.335 17.2547 181.035 18.288C180.736 19.311 180.296 20.1893 179.718 20.923C179.149 21.6463 178.452 22.2095 177.625 22.6125C176.799 23.0052 175.853 23.2015 174.789 23.2015C173.693 23.2015 172.758 22.9948 171.983 22.5815C171.219 22.1578 170.557 21.5327 169.999 20.706L169.891 22.6125C169.86 22.8708 169.72 23 169.472 23H168.573V0.447499H170.061V10.259ZM191.754 7.3295C192.86 7.3295 193.847 7.52067 194.715 7.903C195.593 8.275 196.332 8.80717 196.931 9.4995C197.531 10.1918 197.985 11.0288 198.295 12.0105C198.616 12.9818 198.776 14.072 198.776 15.281C198.776 16.49 198.616 17.5802 198.295 18.5515C197.985 19.5228 197.531 20.3547 196.931 21.047C196.332 21.7393 195.593 22.2715 194.715 22.6435C193.847 23.0155 192.86 23.2015 191.754 23.2015C190.649 23.2015 189.657 23.0155 188.778 22.6435C187.91 22.2715 187.172 21.7393 186.562 21.047C185.963 20.3547 185.503 19.5228 185.182 18.5515C184.872 17.5802 184.717 16.49 184.717 15.281C184.717 14.072 184.872 12.9818 185.182 12.0105C185.503 11.0288 185.963 10.1918 186.562 9.4995C187.172 8.80717 187.91 8.275 188.778 7.903C189.657 7.52067 190.649 7.3295 191.754 7.3295ZM191.754 22.039C192.674 22.039 193.475 21.884 194.157 21.574C194.849 21.2537 195.423 20.799 195.877 20.21C196.342 19.621 196.689 18.9132 196.916 18.0865C197.143 17.2495 197.257 16.3143 197.257 15.281C197.257 14.258 197.143 13.328 196.916 12.491C196.689 11.654 196.342 10.941 195.877 10.352C195.423 9.75267 194.849 9.29283 194.157 8.9725C193.475 8.65217 192.674 8.492 191.754 8.492C190.835 8.492 190.029 8.65217 189.336 8.9725C188.654 9.29283 188.081 9.75267 187.616 10.352C187.161 10.941 186.815 11.654 186.577 12.491C186.35 13.328 186.236 14.258 186.236 15.281C186.236 16.3143 186.35 17.2495 186.577 18.0865C186.815 18.9132 187.161 19.621 187.616 20.21C188.081 20.799 188.654 21.2537 189.336 21.574C190.029 21.884 190.835 22.039 191.754 22.039ZM211.567 15.5445C210.1 15.5962 208.834 15.715 207.77 15.901C206.716 16.0767 205.842 16.3195 205.15 16.6295C204.468 16.9395 203.962 17.3115 203.631 17.7455C203.3 18.1692 203.135 18.6548 203.135 19.2025C203.135 19.7192 203.218 20.1687 203.383 20.551C203.559 20.923 203.786 21.233 204.065 21.481C204.354 21.7187 204.685 21.8943 205.057 22.008C205.429 22.1217 205.817 22.1785 206.22 22.1785C206.819 22.1785 207.367 22.1165 207.863 21.9925C208.369 21.8582 208.834 21.6773 209.258 21.45C209.692 21.2123 210.095 20.9333 210.467 20.613C210.839 20.2927 211.205 19.9465 211.567 19.5745V15.5445ZM202.5 9.763C203.306 8.957 204.153 8.34733 205.042 7.934C205.93 7.52067 206.938 7.314 208.064 7.314C208.891 7.314 209.614 7.44833 210.234 7.717C210.854 7.97533 211.366 8.3525 211.769 8.8485C212.182 9.33417 212.492 9.92833 212.699 10.631C212.905 11.3233 213.009 12.0983 213.009 12.956V23H212.42C212.11 23 211.918 22.8553 211.846 22.566L211.629 20.582C211.205 20.9953 210.782 21.3673 210.358 21.698C209.945 22.0287 209.511 22.3077 209.056 22.535C208.601 22.7623 208.111 22.938 207.584 23.062C207.057 23.186 206.478 23.248 205.848 23.248C205.321 23.248 204.809 23.1705 204.313 23.0155C203.817 22.8605 203.373 22.6228 202.98 22.3025C202.598 21.9822 202.288 21.574 202.05 21.078C201.823 20.5717 201.709 19.9672 201.709 19.2645C201.709 18.6135 201.895 18.009 202.267 17.451C202.639 16.893 203.223 16.4073 204.019 15.994C204.814 15.5807 205.832 15.25 207.072 15.002C208.322 14.754 209.821 14.6093 211.567 14.568V12.956C211.567 11.53 211.257 10.4347 210.637 9.67C210.027 8.895 209.118 8.5075 207.909 8.5075C207.165 8.5075 206.53 8.61083 206.003 8.8175C205.486 9.02417 205.047 9.2515 204.685 9.4995C204.323 9.7475 204.029 9.97483 203.802 10.1815C203.574 10.3882 203.383 10.4915 203.228 10.4915C203.114 10.4915 203.021 10.4657 202.949 10.414C202.877 10.3623 202.815 10.2952 202.763 10.2125L202.5 9.763ZM219.36 11.2975C219.597 10.6672 219.866 10.1092 220.166 9.6235C220.476 9.1275 220.827 8.709 221.22 8.368C221.623 8.027 222.067 7.76867 222.553 7.593C223.049 7.407 223.596 7.314 224.196 7.314C224.516 7.314 224.831 7.345 225.141 7.407C225.451 7.45867 225.725 7.55683 225.963 7.7015L225.839 8.7245C225.787 8.88983 225.689 8.9725 225.544 8.9725C225.42 8.9725 225.229 8.93633 224.971 8.864C224.723 8.79167 224.392 8.7555 223.979 8.7555C223.379 8.7555 222.847 8.8485 222.382 9.0345C221.928 9.21017 221.514 9.47883 221.142 9.8405C220.781 10.2022 220.46 10.6517 220.181 11.189C219.913 11.716 219.665 12.3257 219.437 13.018V23H217.949V7.5775H218.74C218.915 7.5775 219.039 7.61367 219.112 7.686C219.184 7.75833 219.231 7.88233 219.251 8.058L219.36 11.2975ZM238.585 10.8945C237.996 10.0058 237.34 9.38067 236.617 9.019C235.904 8.65733 235.087 8.4765 234.168 8.4765C233.258 8.4765 232.463 8.64183 231.781 8.9725C231.099 9.30317 230.525 9.77333 230.06 10.383C229.605 10.9823 229.259 11.7057 229.022 12.553C228.794 13.39 228.681 14.3148 228.681 15.3275C228.681 17.6215 229.099 19.311 229.936 20.396C230.783 21.4707 232.003 22.008 233.594 22.008C234.607 22.008 235.532 21.7445 236.369 21.2175C237.206 20.6905 237.944 19.9517 238.585 19.001V10.8945ZM240.058 0.447499V23H239.252C238.983 23 238.828 22.8657 238.787 22.597L238.632 20.1635C237.95 21.0935 237.154 21.8323 236.245 22.38C235.335 22.9277 234.312 23.2015 233.176 23.2015C231.274 23.2015 229.797 22.5453 228.743 21.233C227.689 19.9207 227.162 17.9522 227.162 15.3275C227.162 14.2012 227.306 13.1523 227.596 12.181C227.895 11.1993 228.329 10.352 228.898 9.639C229.466 8.91567 230.163 8.34733 230.99 7.934C231.827 7.52067 232.788 7.314 233.873 7.314C234.917 7.314 235.821 7.50517 236.586 7.8875C237.35 8.26983 238.017 8.83817 238.585 9.5925V0.447499H240.058Z" fill="black"/>
</svg>
