<svg width="122" height="48" viewBox="0 0 122 48" fill="none" xmlns="http://www.w3.org/2000/svg">
<rect x="0.25" y="0.25" width="121.5" height="47.5" stroke="black" stroke-width="0.5"/>
<path d="M64.0816 26.613C64.1842 26.613 64.2729 26.6527 64.3476 26.732L65.0896 27.537C64.6789 28.0457 64.1726 28.4353 63.5706 28.706C62.9732 28.9767 62.2546 29.112 61.4146 29.112C60.6632 29.112 59.9866 28.9837 59.3846 28.727C58.7872 28.4703 58.2762 28.1133 57.8516 27.656C57.4269 27.1987 57.1002 26.6527 56.8716 26.018C56.6476 25.3833 56.5356 24.6903 56.5356 23.939C56.5356 23.1783 56.6616 22.483 56.9136 21.853C57.1656 21.2183 57.5202 20.6723 57.9776 20.215C58.4349 19.7577 58.9809 19.403 59.6156 19.151C60.2549 18.8943 60.9596 18.766 61.7296 18.766C62.4809 18.766 63.1366 18.8873 63.6966 19.13C64.2612 19.368 64.7442 19.6853 65.1456 20.082L64.5156 20.957C64.4782 21.013 64.4292 21.062 64.3686 21.104C64.3126 21.146 64.2332 21.167 64.1306 21.167C64.0232 21.167 63.9136 21.125 63.8016 21.041C63.6896 20.957 63.5472 20.866 63.3746 20.768C63.2019 20.67 62.9826 20.579 62.7166 20.495C62.4552 20.411 62.1216 20.369 61.7156 20.369C61.2396 20.369 60.8009 20.453 60.3996 20.621C60.0029 20.7843 59.6599 21.02 59.3706 21.328C59.0859 21.636 58.8619 22.0117 58.6986 22.455C58.5399 22.8937 58.4606 23.3883 58.4606 23.939C58.4606 24.5083 58.5399 25.0147 58.6986 25.458C58.8619 25.9013 59.0812 26.2747 59.3566 26.578C59.6319 26.8813 59.9562 27.1147 60.3296 27.278C60.7029 27.4367 61.1042 27.516 61.5336 27.516C61.7902 27.516 62.0212 27.502 62.2266 27.474C62.4366 27.446 62.6279 27.4017 62.8006 27.341C62.9779 27.2803 63.1436 27.2033 63.2976 27.11C63.4562 27.012 63.6126 26.893 63.7666 26.753C63.8132 26.711 63.8622 26.6783 63.9136 26.655C63.9649 26.627 64.0209 26.613 64.0816 26.613ZM75.4131 29H73.9571C73.7938 29 73.6585 28.9603 73.5511 28.881C73.4485 28.797 73.3738 28.6943 73.3271 28.573L72.5711 26.508H68.3781L67.6221 28.573C67.5848 28.6803 67.5101 28.7783 67.3981 28.867C67.2908 28.9557 67.1578 29 66.9991 29H65.5361L69.5121 18.878H71.4371L75.4131 29ZM68.8611 25.178H72.0881L70.8561 21.811C70.8001 21.6617 70.7371 21.4867 70.6671 21.286C70.6018 21.0807 70.5365 20.859 70.4711 20.621C70.4058 20.859 70.3405 21.0807 70.2751 21.286C70.2145 21.4913 70.1538 21.671 70.0931 21.825L68.8611 25.178ZM78.3386 27.446H82.3916V29H76.4556V18.878H78.3386V27.446ZM85.571 27.446H89.624V29H83.688V18.878H85.571V27.446Z" fill="black"/>
<path d="M35.2345 16.2048L35.4826 16L35.7087 16.2369L39.1589 20.0323L39.3745 20.2801L39.1483 20.5066L37.6711 21.9944L42.0055 26.3288L43.4824 24.8515L43.7197 24.6145L43.9676 24.8409L47.7629 28.2911L48 28.5068L47.7952 28.7655L46.4152 30.4906L46.4044 30.5014C45.5474 31.4364 44.4832 32 43.3855 32C42.3271 32 41.1555 31.6351 40.3775 30.8571L33.1321 23.6117C32.354 22.8337 32 21.6729 32 20.6145C32 19.5168 32.5528 18.4526 33.488 17.5956L33.4986 17.5848H33.5094L35.2345 16.2048Z" stroke="black" stroke-width="1.5"/>
</svg>
