<svg width="20" height="20" viewBox="0 0 20 20" fill="none" xmlns="http://www.w3.org/2000/svg">
<path d="M10 7.93975e-05C7.34777 7.93975e-05 4.80434 1.05369 2.92894 2.92902C1.05362 4.80434 0 7.34808 0 10.0001C0 12.6521 1.05362 15.1957 2.92894 17.0711C4.80427 18.9465 7.34801 20.0001 10 20.0001C12.652 20.0001 15.1957 18.9465 17.0711 17.0711C18.9464 15.1958 20 12.6521 20 10.0001C19.9971 7.3488 18.9425 4.8072 17.0678 2.93219C15.193 1.0575 12.6512 0.0030556 10 7.93975e-05Z" fill="#F04438"/>
<path d="M10.5314 9.13085C11.7342 9.59356 13.3813 10.2272 13.3813 12.0744C13.3813 13.3813 12.3736 14.4104 10.9416 14.6795V16H9.44071L9.44084 14.6798C8.00829 14.411 7.00003 13.3816 7.00003 12.0744H8.87605C8.87605 12.5754 9.54462 12.8748 10.1907 12.8748C10.8369 12.8748 11.5053 12.5754 11.5053 12.0744C11.5053 11.5964 11.094 11.3573 9.85788 10.8819C8.65174 10.4178 7 9.7824 7 7.92651C7 6.61933 8.00829 5.58986 9.4408 5.32119V4H10.9417V5.32142C12.3735 5.59047 13.3814 6.6197 13.3814 7.92648H11.5054C11.5054 7.42555 10.8368 7.12612 10.1908 7.12612C9.54459 7.12612 8.87615 7.42553 8.87615 7.92648C8.87602 8.41197 9.28932 8.65297 10.5314 9.13085Z" fill="white"/>
</svg>
