<svg width="20" height="20" viewBox="0 0 20 20" fill="none" xmlns="http://www.w3.org/2000/svg">
<path d="M20 10C20 12.6522 18.9464 15.1957 17.071 17.071C15.1957 18.9464 12.6521 20 10 20C7.34788 20 4.80432 18.9464 2.92898 17.071C1.05356 15.1957 0 12.6521 0 10C0 7.34788 1.05356 4.80432 2.92898 2.92898C4.80425 1.05356 7.34788 0 10 0C11.7553 0 13.4798 0.462068 15 1.3397C16.5202 2.21748 17.7824 3.47976 18.6603 5.00004C19.5379 6.52024 20 8.24473 20 10Z" fill="black"/>
<path d="M11.8182 5.42844C11.8184 5.80726 11.6682 6.17077 11.4011 6.43884C11.134 6.70669 10.7716 6.85727 10.3936 6.85746C10.0158 6.85746 9.65333 6.70708 9.386 6.43903C9.11887 6.17117 8.96871 5.80783 8.96871 5.42882C8.96871 5.05 9.11868 4.68649 9.386 4.41862C9.65312 4.15057 10.0155 4 10.3934 4C10.7712 4.00019 11.1336 4.15057 11.4007 4.41843C11.6678 4.68629 11.818 5.04963 11.8182 5.42844ZM8 7.8571V10.1429H9.25378V16H11.5333L11.5335 7.857L8 7.8571Z" fill="white"/>
</svg>
