<svg width="24" height="24" viewBox="0 0 24 24" fill="none" xmlns="http://www.w3.org/2000/svg">
<path d="M4.88115 1.00065C4.6297 1.02429 4.43795 1.23594 4.43899 1.4884V8.80538H3.46348C2.66114 8.80538 2 9.46652 2 10.2687V18.0735C2 18.8756 2.66114 19.5368 3.46348 19.5368H4.43899V21.9758C4.43916 22.2453 4.65744 22.4635 4.92692 22.4635H19.0731C19.3426 22.4635 19.5608 22.2452 19.561 21.9758V19.5368H20.5365C21.3389 19.5368 22 18.8756 22 18.0735V10.2687C22 9.46652 21.3389 8.80538 20.5365 8.80538H19.561V4.49137C19.5619 4.36343 19.5127 4.24026 19.4237 4.14838L16.4741 1.14542C16.3816 1.05185 16.255 0.999614 16.1235 1.00064H4.92722C4.91191 0.999787 4.8966 0.999787 4.88146 1.00064L4.88115 1.00065ZM5.41468 1.97616H15.925L18.585 4.69724V8.80538H5.41442L5.41468 1.97616ZM3.46344 9.78093H20.5364C20.8151 9.78093 21.0241 9.99002 21.0241 10.2687V18.0735C21.0241 18.3521 20.8151 18.5612 20.5364 18.5612H19.5609V17.0977C19.5607 16.8284 19.3424 16.61 19.0729 16.61H4.92679C4.91148 16.6093 4.89617 16.6093 4.88102 16.61C4.62957 16.6336 4.43783 16.8453 4.43887 17.0977V18.5612H3.46336C3.18469 18.5612 2.97561 18.3521 2.97561 18.0735V10.2687C2.97561 9.99002 3.1847 9.78093 3.46336 9.78093H3.46344ZM16.3901 11.0004C15.986 11.0004 15.6584 11.3281 15.6584 11.7322C15.6584 12.1362 15.986 12.4639 16.3901 12.4639C16.7942 12.4639 17.1218 12.1362 17.1218 11.7322C17.1218 11.3281 16.7942 11.0004 16.3901 11.0004ZM18.8291 11.0004C18.425 11.0004 18.0973 11.3281 18.0973 11.7322C18.0973 12.1362 18.425 12.4639 18.8291 12.4639C19.2332 12.4639 19.5608 12.1362 19.5608 11.7322C19.5608 11.3281 19.2332 11.0004 18.8291 11.0004ZM5.125 11.2444C4.9957 11.2504 4.87406 11.3077 4.78678 11.4033C4.69951 11.4991 4.65391 11.6257 4.66004 11.755C4.66616 11.8844 4.72332 12.0061 4.81911 12.0933C4.91489 12.1805 5.04147 12.226 5.17076 12.2199H7.60976C7.74042 12.2218 7.86614 12.1713 7.9592 12.0796C8.05226 11.9879 8.10449 11.8628 8.10449 11.7322C8.10449 11.6015 8.05226 11.4764 7.9592 11.3847C7.86614 11.293 7.74042 11.2425 7.60976 11.2444H5.17076C5.15562 11.2437 5.14031 11.2437 5.125 11.2444L5.125 11.2444ZM5.41473 17.5858H18.5853V21.4883H5.41473V17.5858Z" fill="black"/>
</svg>
