<svg width="212" height="80" viewBox="0 0 212 80" fill="none" xmlns="http://www.w3.org/2000/svg">
<rect width="212" height="80" rx="4" fill="#1A1A1A"/>
<path d="M34.248 32.05C34.248 33.6167 34.0772 34.975 33.7355 36.125C33.4022 37.2667 32.9439 38.2125 32.3605 38.9625C31.7772 39.7125 31.0855 40.2708 30.2855 40.6375C29.4939 41.0042 28.6439 41.1875 27.7355 41.1875C26.8189 41.1875 25.9647 41.0042 25.173 40.6375C24.3897 40.2708 23.7064 39.7125 23.123 38.9625C22.5397 38.2125 22.0814 37.2667 21.748 36.125C21.4147 34.975 21.248 33.6167 21.248 32.05C21.248 30.4833 21.4147 29.125 21.748 27.975C22.0814 26.825 22.5397 25.875 23.123 25.125C23.7064 24.3667 24.3897 23.8042 25.173 23.4375C25.9647 23.0708 26.8189 22.8875 27.7355 22.8875C28.6439 22.8875 29.4939 23.0708 30.2855 23.4375C31.0855 23.8042 31.7772 24.3667 32.3605 25.125C32.9439 25.875 33.4022 26.825 33.7355 27.975C34.0772 29.125 34.248 30.4833 34.248 32.05ZM31.9355 32.05C31.9355 30.6833 31.8189 29.5375 31.5855 28.6125C31.3605 27.6792 31.0522 26.9292 30.6605 26.3625C30.2772 25.7958 29.8314 25.3917 29.323 25.15C28.8147 24.9 28.2855 24.775 27.7355 24.775C27.1855 24.775 26.6564 24.9 26.148 25.15C25.6397 25.3917 25.1939 25.7958 24.8105 26.3625C24.4272 26.9292 24.1189 27.6792 23.8855 28.6125C23.6605 29.5375 23.548 30.6833 23.548 32.05C23.548 33.4167 23.6605 34.5625 23.8855 35.4875C24.1189 36.4125 24.4272 37.1583 24.8105 37.725C25.1939 38.2917 25.6397 38.7 26.148 38.95C26.6564 39.1917 27.1855 39.3125 27.7355 39.3125C28.2855 39.3125 28.8147 39.1917 29.323 38.95C29.8314 38.7 30.2772 38.2917 30.6605 37.725C31.0522 37.1583 31.3605 36.4125 31.5855 35.4875C31.8189 34.5625 31.9355 33.4167 31.9355 32.05ZM48.75 32.05C48.75 33.6167 48.5792 34.975 48.2375 36.125C47.9042 37.2667 47.4458 38.2125 46.8625 38.9625C46.2792 39.7125 45.5875 40.2708 44.7875 40.6375C43.9958 41.0042 43.1458 41.1875 42.2375 41.1875C41.3208 41.1875 40.4667 41.0042 39.675 40.6375C38.8917 40.2708 38.2083 39.7125 37.625 38.9625C37.0417 38.2125 36.5833 37.2667 36.25 36.125C35.9167 34.975 35.75 33.6167 35.75 32.05C35.75 30.4833 35.9167 29.125 36.25 27.975C36.5833 26.825 37.0417 25.875 37.625 25.125C38.2083 24.3667 38.8917 23.8042 39.675 23.4375C40.4667 23.0708 41.3208 22.8875 42.2375 22.8875C43.1458 22.8875 43.9958 23.0708 44.7875 23.4375C45.5875 23.8042 46.2792 24.3667 46.8625 25.125C47.4458 25.875 47.9042 26.825 48.2375 27.975C48.5792 29.125 48.75 30.4833 48.75 32.05ZM46.4375 32.05C46.4375 30.6833 46.3208 29.5375 46.0875 28.6125C45.8625 27.6792 45.5542 26.9292 45.1625 26.3625C44.7792 25.7958 44.3333 25.3917 43.825 25.15C43.3167 24.9 42.7875 24.775 42.2375 24.775C41.6875 24.775 41.1583 24.9 40.65 25.15C40.1417 25.3917 39.6958 25.7958 39.3125 26.3625C38.9292 26.9292 38.6208 27.6792 38.3875 28.6125C38.1625 29.5375 38.05 30.6833 38.05 32.05C38.05 33.4167 38.1625 34.5625 38.3875 35.4875C38.6208 36.4125 38.9292 37.1583 39.3125 37.725C39.6958 38.2917 40.1417 38.7 40.65 38.95C41.1583 39.1917 41.6875 39.3125 42.2375 39.3125C42.7875 39.3125 43.3167 39.1917 43.825 38.95C44.3333 38.7 44.7792 38.2917 45.1625 37.725C45.5542 37.1583 45.8625 36.4125 46.0875 35.4875C46.3208 34.5625 46.4375 33.4167 46.4375 32.05Z" fill="#B3B3B3"/>
<path d="M34.6736 53.969V64H33.3156V59.436H27.9046V64H26.5466V53.969H27.9046V58.442H33.3156V53.969H34.6736ZM40.017 58.827C40.409 58.827 40.7544 58.7803 41.053 58.687C41.3564 58.589 41.6084 58.4537 41.809 58.281C42.0144 58.1037 42.1684 57.8937 42.271 57.651C42.3737 57.4083 42.425 57.14 42.425 56.846C42.425 56.2487 42.229 55.7983 41.837 55.495C41.445 55.1917 40.857 55.04 40.073 55.04H38.589V58.827H40.017ZM44.651 64H43.447C43.1997 64 43.0177 63.9043 42.901 63.713L40.297 60.129C40.2177 60.017 40.1314 59.9377 40.038 59.891C39.9494 59.8397 39.8094 59.814 39.618 59.814H38.589V64H37.238V53.969H40.073C40.7077 53.969 41.256 54.0343 41.718 54.165C42.18 54.291 42.5604 54.4753 42.859 54.718C43.1624 54.9607 43.3864 55.2547 43.531 55.6C43.6757 55.9407 43.748 56.3233 43.748 56.748C43.748 57.1027 43.692 57.434 43.58 57.742C43.468 58.05 43.3047 58.3277 43.09 58.575C42.88 58.8177 42.621 59.0253 42.313 59.198C42.0097 59.3707 41.6644 59.5013 41.277 59.59C41.4497 59.688 41.599 59.8303 41.725 60.017L44.651 64Z" fill="#CCCCCC"/>
<rect x="70" width="1" height="80" fill="url(#paint0_linear_1573_7049)"/>
<path d="M105.248 32.05C105.248 33.6167 105.077 34.975 104.736 36.125C104.402 37.2667 103.944 38.2125 103.361 38.9625C102.777 39.7125 102.086 40.2708 101.286 40.6375C100.494 41.0042 99.6439 41.1875 98.7355 41.1875C97.8189 41.1875 96.9647 41.0042 96.173 40.6375C95.3897 40.2708 94.7064 39.7125 94.123 38.9625C93.5397 38.2125 93.0814 37.2667 92.748 36.125C92.4147 34.975 92.248 33.6167 92.248 32.05C92.248 30.4833 92.4147 29.125 92.748 27.975C93.0814 26.825 93.5397 25.875 94.123 25.125C94.7064 24.3667 95.3897 23.8042 96.173 23.4375C96.9647 23.0708 97.8189 22.8875 98.7355 22.8875C99.6439 22.8875 100.494 23.0708 101.286 23.4375C102.086 23.8042 102.777 24.3667 103.361 25.125C103.944 25.875 104.402 26.825 104.736 27.975C105.077 29.125 105.248 30.4833 105.248 32.05ZM102.936 32.05C102.936 30.6833 102.819 29.5375 102.586 28.6125C102.361 27.6792 102.052 26.9292 101.661 26.3625C101.277 25.7958 100.831 25.3917 100.323 25.15C99.8147 24.9 99.2855 24.775 98.7355 24.775C98.1855 24.775 97.6564 24.9 97.148 25.15C96.6397 25.3917 96.1939 25.7958 95.8105 26.3625C95.4272 26.9292 95.1189 27.6792 94.8855 28.6125C94.6605 29.5375 94.548 30.6833 94.548 32.05C94.548 33.4167 94.6605 34.5625 94.8855 35.4875C95.1189 36.4125 95.4272 37.1583 95.8105 37.725C96.1939 38.2917 96.6397 38.7 97.148 38.95C97.6564 39.1917 98.1855 39.3125 98.7355 39.3125C99.2855 39.3125 99.8147 39.1917 100.323 38.95C100.831 38.7 101.277 38.2917 101.661 37.725C102.052 37.1583 102.361 36.4125 102.586 35.4875C102.819 34.5625 102.936 33.4167 102.936 32.05ZM113.513 22.8875C114.271 22.8875 114.979 23 115.638 23.225C116.296 23.45 116.863 23.7792 117.338 24.2125C117.821 24.6375 118.2 25.1583 118.475 25.775C118.75 26.3917 118.888 27.0917 118.888 27.875C118.888 28.5417 118.788 29.1583 118.588 29.725C118.388 30.2917 118.117 30.8375 117.775 31.3625C117.433 31.8792 117.038 32.3833 116.588 32.875C116.146 33.3583 115.675 33.8542 115.175 34.3625L110.463 39.1875C110.796 39.0958 111.133 39.025 111.475 38.975C111.817 38.9167 112.146 38.8875 112.463 38.8875H118.463C118.704 38.8875 118.896 38.9583 119.038 39.1C119.179 39.2417 119.25 39.425 119.25 39.65V41H107.3V40.2375C107.3 40.0792 107.329 39.9167 107.388 39.75C107.454 39.5833 107.558 39.4292 107.7 39.2875L113.438 33.525C113.913 33.0417 114.346 32.5792 114.738 32.1375C115.129 31.6875 115.463 31.2375 115.738 30.7875C116.021 30.3375 116.238 29.8833 116.388 29.425C116.538 28.9583 116.613 28.4625 116.613 27.9375C116.613 27.4125 116.529 26.9542 116.363 26.5625C116.196 26.1625 115.967 25.8333 115.675 25.575C115.383 25.3167 115.042 25.125 114.65 25C114.258 24.8667 113.838 24.8 113.388 24.8C112.938 24.8 112.521 24.8667 112.138 25C111.754 25.1333 111.413 25.3208 111.113 25.5625C110.821 25.7958 110.571 26.075 110.363 26.4C110.163 26.725 110.021 27.0833 109.938 27.475C109.871 27.7167 109.771 27.8917 109.638 28C109.504 28.1083 109.329 28.1625 109.113 28.1625C109.071 28.1625 109.025 28.1625 108.975 28.1625C108.933 28.1542 108.883 28.1458 108.825 28.1375L107.663 27.9375C107.779 27.1208 108.004 26.4 108.338 25.775C108.671 25.1417 109.092 24.6125 109.6 24.1875C110.117 23.7625 110.704 23.4417 111.363 23.225C112.029 23 112.746 22.8875 113.513 22.8875Z" fill="white"/>
<path d="M103.909 53.969V64H102.719V56.629C102.719 56.531 102.722 56.426 102.726 56.314C102.736 56.202 102.745 56.0877 102.754 55.971L99.3104 62.243C99.2031 62.453 99.0397 62.558 98.8204 62.558H98.6244C98.4051 62.558 98.2417 62.453 98.1344 62.243L94.6204 55.943C94.6484 56.1903 94.6624 56.419 94.6624 56.629V64H93.4724V53.969H94.4734C94.5947 53.969 94.6881 53.9807 94.7534 54.004C94.8187 54.0273 94.8817 54.0927 94.9424 54.2L98.4074 60.374C98.4634 60.486 98.5171 60.6027 98.5684 60.724C98.6244 60.8453 98.6757 60.969 98.7224 61.095C98.7691 60.969 98.8181 60.8453 98.8694 60.724C98.9207 60.598 98.9767 60.479 99.0374 60.367L102.439 54.2C102.495 54.0927 102.556 54.0273 102.621 54.004C102.691 53.9807 102.787 53.969 102.908 53.969H103.909ZM107.832 64H106.474V53.969H107.832V64ZM118.525 53.969V64H117.846C117.739 64 117.648 63.9813 117.573 63.944C117.503 63.9067 117.433 63.8437 117.363 63.755L111.56 56.195C111.57 56.3117 111.577 56.426 111.581 56.538C111.586 56.65 111.588 56.755 111.588 56.853V64H110.398V53.969H111.098C111.159 53.969 111.21 53.9737 111.252 53.983C111.294 53.9877 111.332 53.9993 111.364 54.018C111.397 54.032 111.43 54.0553 111.462 54.088C111.495 54.116 111.53 54.1533 111.567 54.2L117.37 61.753C117.361 61.6317 117.352 61.515 117.342 61.403C117.338 61.2863 117.335 61.1767 117.335 61.074V53.969H118.525Z" fill="#CCCCCC"/>
<rect x="141" width="1" height="80" fill="url(#paint1_linear_1573_7049)"/>
<path d="M176.248 32.05C176.248 33.6167 176.077 34.975 175.736 36.125C175.402 37.2667 174.944 38.2125 174.361 38.9625C173.777 39.7125 173.086 40.2708 172.286 40.6375C171.494 41.0042 170.644 41.1875 169.736 41.1875C168.819 41.1875 167.965 41.0042 167.173 40.6375C166.39 40.2708 165.706 39.7125 165.123 38.9625C164.54 38.2125 164.081 37.2667 163.748 36.125C163.415 34.975 163.248 33.6167 163.248 32.05C163.248 30.4833 163.415 29.125 163.748 27.975C164.081 26.825 164.54 25.875 165.123 25.125C165.706 24.3667 166.39 23.8042 167.173 23.4375C167.965 23.0708 168.819 22.8875 169.736 22.8875C170.644 22.8875 171.494 23.0708 172.286 23.4375C173.086 23.8042 173.777 24.3667 174.361 25.125C174.944 25.875 175.402 26.825 175.736 27.975C176.077 29.125 176.248 30.4833 176.248 32.05ZM173.936 32.05C173.936 30.6833 173.819 29.5375 173.586 28.6125C173.361 27.6792 173.052 26.9292 172.661 26.3625C172.277 25.7958 171.831 25.3917 171.323 25.15C170.815 24.9 170.286 24.775 169.736 24.775C169.186 24.775 168.656 24.9 168.148 25.15C167.64 25.3917 167.194 25.7958 166.811 26.3625C166.427 26.9292 166.119 27.6792 165.886 28.6125C165.661 29.5375 165.548 30.6833 165.548 32.05C165.548 33.4167 165.661 34.5625 165.886 35.4875C166.119 36.4125 166.427 37.1583 166.811 37.725C167.194 38.2917 167.64 38.7 168.148 38.95C168.656 39.1917 169.186 39.3125 169.736 39.3125C170.286 39.3125 170.815 39.1917 171.323 38.95C171.831 38.7 172.277 38.2917 172.661 37.725C173.052 37.1583 173.361 36.4125 173.586 35.4875C173.819 34.5625 173.936 33.4167 173.936 32.05ZM190.55 23.0875V24.0875C190.55 24.3708 190.517 24.6042 190.45 24.7875C190.392 24.9708 190.329 25.125 190.263 25.25L182.85 40.2125C182.742 40.4292 182.592 40.6167 182.4 40.775C182.208 40.925 181.95 41 181.625 41H180.038L187.563 26.225C187.671 26.0167 187.779 25.825 187.888 25.65C188.004 25.475 188.133 25.3083 188.275 25.15H178.925C178.783 25.15 178.654 25.0958 178.538 24.9875C178.429 24.8708 178.375 24.7417 178.375 24.6V23.0875H190.55Z" fill="white"/>
<path d="M171.505 55.537C171.463 55.607 171.416 55.6607 171.365 55.698C171.318 55.7307 171.26 55.747 171.19 55.747C171.11 55.747 171.017 55.7073 170.91 55.628C170.802 55.5487 170.667 55.4623 170.504 55.369C170.345 55.271 170.151 55.1823 169.923 55.103C169.699 55.0237 169.426 54.984 169.104 54.984C168.8 54.984 168.532 55.026 168.299 55.11C168.07 55.1893 167.876 55.299 167.718 55.439C167.564 55.579 167.447 55.7447 167.368 55.936C167.288 56.1227 167.249 56.3257 167.249 56.545C167.249 56.825 167.316 57.0583 167.452 57.245C167.592 57.427 167.774 57.5833 167.998 57.714C168.226 57.8447 168.483 57.959 168.768 58.057C169.057 58.1503 169.351 58.2483 169.65 58.351C169.953 58.4537 170.247 58.5703 170.532 58.701C170.821 58.827 171.078 58.988 171.302 59.184C171.53 59.38 171.712 59.6203 171.848 59.905C171.988 60.1897 172.058 60.5397 172.058 60.955C172.058 61.3937 171.983 61.8067 171.834 62.194C171.684 62.5767 171.465 62.9103 171.176 63.195C170.891 63.4797 170.539 63.7037 170.119 63.867C169.703 64.0303 169.23 64.112 168.698 64.112C168.044 64.112 167.452 63.9953 166.92 63.762C166.388 63.524 165.933 63.2043 165.555 62.803L165.947 62.159C165.984 62.1077 166.028 62.0657 166.08 62.033C166.136 61.9957 166.196 61.977 166.262 61.977C166.322 61.977 166.39 62.0027 166.465 62.054C166.544 62.1007 166.633 62.1613 166.731 62.236C166.829 62.3107 166.941 62.3923 167.067 62.481C167.193 62.5697 167.335 62.6513 167.494 62.726C167.657 62.8007 167.841 62.8637 168.047 62.915C168.252 62.9617 168.483 62.985 168.74 62.985C169.062 62.985 169.349 62.9407 169.601 62.852C169.853 62.7633 170.065 62.6397 170.238 62.481C170.415 62.3177 170.55 62.124 170.644 61.9C170.737 61.676 170.784 61.4263 170.784 61.151C170.784 60.8477 170.714 60.6003 170.574 60.409C170.438 60.213 170.259 60.0497 170.035 59.919C169.811 59.7883 169.554 59.6787 169.265 59.59C168.975 59.4967 168.681 59.4033 168.383 59.31C168.084 59.212 167.79 59.1 167.501 58.974C167.211 58.848 166.955 58.6847 166.731 58.484C166.507 58.2833 166.325 58.0337 166.185 57.735C166.049 57.4317 165.982 57.0583 165.982 56.615C165.982 56.2603 166.049 55.9173 166.185 55.586C166.325 55.2547 166.525 54.9607 166.787 54.704C167.053 54.4473 167.377 54.242 167.76 54.088C168.147 53.934 168.59 53.857 169.09 53.857C169.65 53.857 170.158 53.9457 170.616 54.123C171.078 54.3003 171.484 54.557 171.834 54.893L171.505 55.537ZM180.163 62.894L180.156 64H173.975V53.969H180.156V55.075H175.333V58.407H179.239V59.471H175.333V62.894H180.163ZM188.879 61.928C188.953 61.928 189.019 61.9583 189.075 62.019L189.614 62.6C189.203 63.076 188.704 63.447 188.116 63.713C187.532 63.979 186.825 64.112 185.995 64.112C185.276 64.112 184.623 63.9883 184.035 63.741C183.447 63.489 182.945 63.139 182.53 62.691C182.114 62.2383 181.792 61.697 181.564 61.067C181.335 60.437 181.221 59.744 181.221 58.988C181.221 58.232 181.34 57.539 181.578 56.909C181.816 56.279 182.149 55.7377 182.579 55.285C183.013 54.8323 183.531 54.4823 184.133 54.235C184.735 53.983 185.4 53.857 186.128 53.857C186.842 53.857 187.472 53.9713 188.018 54.2C188.564 54.4287 189.044 54.739 189.46 55.131L189.012 55.754C188.984 55.8007 188.946 55.8403 188.9 55.873C188.858 55.901 188.799 55.915 188.725 55.915C188.641 55.915 188.538 55.8707 188.417 55.782C188.295 55.6887 188.137 55.586 187.941 55.474C187.745 55.362 187.5 55.2617 187.206 55.173C186.912 55.0797 186.55 55.033 186.121 55.033C185.603 55.033 185.129 55.124 184.7 55.306C184.27 55.4833 183.899 55.7423 183.587 56.083C183.279 56.4237 183.038 56.839 182.866 57.329C182.693 57.819 182.607 58.372 182.607 58.988C182.607 59.6133 182.695 60.171 182.873 60.661C183.055 61.151 183.3 61.5663 183.608 61.907C183.92 62.243 184.287 62.4997 184.707 62.677C185.131 62.8543 185.589 62.943 186.079 62.943C186.377 62.943 186.646 62.9267 186.884 62.894C187.126 62.8567 187.348 62.8007 187.549 62.726C187.754 62.6513 187.943 62.558 188.116 62.446C188.293 62.3293 188.468 62.1917 188.641 62.033C188.72 61.963 188.799 61.928 188.879 61.928Z" fill="#CCCCCC"/>
<defs>
<linearGradient id="paint0_linear_1573_7049" x1="70.5" y1="0" x2="70.5" y2="80" gradientUnits="userSpaceOnUse">
<stop stop-color="#808080" stop-opacity="0"/>
<stop offset="0.508608" stop-color="#808080"/>
<stop offset="1" stop-color="#808080" stop-opacity="0"/>
</linearGradient>
<linearGradient id="paint1_linear_1573_7049" x1="141.5" y1="0" x2="141.5" y2="80" gradientUnits="userSpaceOnUse">
<stop stop-color="#808080" stop-opacity="0"/>
<stop offset="0.508608" stop-color="#808080"/>
<stop offset="1" stop-color="#808080" stop-opacity="0"/>
</linearGradient>
</defs>
</svg>
