<svg width="24" height="24" viewBox="0 0 24 24" fill="none" xmlns="http://www.w3.org/2000/svg">
<path d="M2 21.2C2 21.0895 2.08954 21 2.2 21H21.8C21.9105 21 22 21.0895 22 21.2V21.8C22 21.9105 21.9105 22 21.8 22H2.2C2.08954 22 2 21.9105 2 21.8V21.2Z" fill="black"/>
<path fill-rule="evenodd" clip-rule="evenodd" d="M4.18953 12.504L3.00643 17.9688C2.97872 18.155 3.0416 18.3435 3.17541 18.4759C3.27543 18.5877 3.41985 18.6496 3.56977 18.6449L3.68238 18.6169L9.14719 17.4338L9.40067 17.2929L18.612 8.08162C19.2883 7.41884 19.6718 6.5132 19.6772 5.56631C19.6825 4.61943 19.3091 3.70967 18.6403 3.03924H18.612C17.9418 2.37374 17.0355 2 16.091 2C15.1463 2 14.24 2.37373 13.5698 3.03924L4.35852 12.2224C4.27677 12.2984 4.21822 12.3961 4.18953 12.504ZM4.13185 17.4964L8.79083 16.4878L8.79252 16.4869L16.8222 8.45721L13.0824 4.93727L5.1357 12.8596L4.13185 17.4964ZM13.7909 4.23089L17.5296 7.74978L17.912 7.36736C18.3978 6.89128 18.6733 6.24078 18.6772 5.56071C18.6804 4.98369 18.4879 4.42579 18.1359 3.97575L17.9074 3.74885C17.4244 3.26923 16.7714 3 16.091 3C15.4108 3 14.7581 3.26897 14.2752 3.74809L14.2744 3.74884L13.7909 4.23089Z" fill="black"/>
</svg>
